<?xml version="1.0" encoding="UTF-8"?>
<svg xmlns="http://www.w3.org/2000/svg" xmlns:xlink="http://www.w3.org/1999/xlink" viewBox="0 0 616 979.726">
  <defs>
    <clipPath id="clippath">
      <path d="M124.832,634.969c-29.953,58.48-48.833,316.577-48.833,316.577,88.225,49.689,201.502,16.053,201.502,16.053,15.612-158.623,30.498-157.858,30.498-157.858,0,0,14.886-.764,30.498,157.858,0,0,113.277,33.636,201.502-16.053,0,0-18.879-258.097-48.833-316.577-203.833,37.242-366.335,0-366.335,0Z" fill="none"/>
    </clipPath>
    <clipPath id="clippath-1">
      <path d="M586.553,189.085c-.424-31.598-1.8-48.834-22.128-83.66-17.544-30.057-90.723-51.319-90.723-51.319l-77.617-36.085h-176.17l-77.617,36.085s-73.179,21.263-90.723,51.319c-20.328,34.826-21.704,52.061-22.128,83.66-.453,33.747-20.085,93.617-21.787,100.425,0,0,42.553,31.319,105.872,26.213l22.809-88.511h343.319l22.809,88.511c63.319,5.106,105.872-26.213,105.872-26.213-1.702-6.808-21.334-66.678-21.787-100.425Z" fill="none"/>
    </clipPath>
    <clipPath id="clippath-2">
      <path d="M479.234,273.17c1.532-12.255,29.106-98.043,7.66-139.404-21.447-41.362-100.278-78.864-100.278-78.864l-78.616,31.289-78.616-31.289s-78.831,37.502-100.278,78.864c-21.447,41.362,6.128,127.149,7.66,139.404,1.532,12.255,33.362,178.298-15.793,373.532,0,0,62.091,27.574,187.027,22.468,124.936,5.106,187.027-22.468,187.027-22.468-49.155-195.234-17.325-361.277-15.793-373.532Z" fill="none"/>
    </clipPath>
  </defs>
  <g id="short_frente">
    <path d="M491.167,634.969l-11.264-44.242H136.097l-11.265,44.242c-29.953,58.48-48.833,316.577-48.833,316.577,88.225,49.689,201.502,16.053,201.502,16.053,15.612-158.623,30.498-157.859,30.498-157.859,0,0,14.886-.764,30.498,157.859,0,0,113.277,33.636,201.502-16.053,0,0-18.879-258.097-48.833-316.577Z" stroke="#4b4b4b" stroke-linecap="round" stroke-linejoin="round" stroke-width="2"/>
    <g>
      <path d="M479.903,590.726s-37.477,23.985-171.903,22.838" fill="none" stroke="#4b4b4b" stroke-linecap="round" stroke-linejoin="round" stroke-width="2"/>
      <path d="M308,651.787s111.189-1.529,183.167-16.818" fill="none" stroke="#4b4b4b" stroke-linecap="round" stroke-linejoin="round" stroke-width="2"/>
      <path d="M136.097,590.726s37.477,23.985,171.903,22.838" fill="none" stroke="#4b4b4b" stroke-linecap="round" stroke-linejoin="round" stroke-width="2"/>
      <path d="M308,651.787s-111.189-1.529-183.167-16.818" fill="none" stroke="#4b4b4b" stroke-linecap="round" stroke-linejoin="round" stroke-width="2"/>
    </g>
  </g>
  <g id="short_estampa_frente">
    <g clip-path="url(#clippath)">
      <g>
        <rect x="473.623" y="628.356" width="46.753" height="181.43" transform="translate(-91.745 72.966) rotate(-7.689)" fill="#68ed00"/>
        <rect x="28.285" y="695.694" width="181.43" height="46.753" transform="translate(-609.527 740.786) rotate(-82.311)" fill="#68ed00"/>
      </g>
    </g>
  </g>
  <g id="short-numero_contorno_frente">
    <path d="M497.195,914.273l-5.449,4.805h-14.648l-5.449-4.805v-7.412h8.291v3.721h8.76v-10.254h-11.865l-5.42-4.805v-17.637l5.42-4.834h14.854l5.508,4.863v36.357ZM488.699,891.803v-10.254h-8.76v10.254h8.76Z" fill="#fff" stroke="#fff" stroke-linecap="round" stroke-linejoin="round" stroke-width="10"/>
  </g>
  <g id="short-numero_frente">
    <path d="M497.195,914.273l-5.449,4.805h-14.648l-5.449-4.805v-7.412h8.291v3.721h8.76v-10.254h-11.865l-5.42-4.805v-17.637l5.42-4.834h14.854l5.508,4.863v36.357ZM488.699,891.803v-10.254h-8.76v10.254h8.76Z"/>
  </g>
  <g id="short_escudo_frente">
    <g>
      <path d="M137.404,871.005s3.744.785,11.871,2.965c7.677,2.059,10.367,2.883,10.367,2.883,0,0-3.751,5.806-2.216,21.582.852,8.756-3.418,13.448-9.726,17.708-3.123,2.109-6.71,3.164-10.296,3.164s-7.173-1.055-10.296-3.164c-6.308-4.26-10.578-8.953-9.726-17.708,1.535-15.776-2.216-21.582-2.216-21.582,0,0,2.691-.824,10.367-2.883,8.127-2.18,11.871-2.965,11.871-2.965Z"/>
      <path d="M137.404,920.666c-3.943,0-7.766-1.174-11.056-3.396-5.927-4.004-11.279-9.072-10.317-18.965,1.472-15.131-1.971-20.66-2.005-20.714-.231-.357-.281-.802-.135-1.202.146-.399.471-.708.878-.832.111-.034,2.801-.854,10.413-2.896,8.07-2.165,11.789-2.95,11.944-2.983.184-.038.373-.038.557,0,.155.033,3.875.818,11.945,2.983,7.612,2.042,10.302,2.862,10.413,2.896.406.124.732.433.878.832.146.4.095.845-.135,1.202-.028.046-3.461,5.759-2.005,20.714.962,9.893-4.39,14.961-10.317,18.965-3.291,2.222-7.115,3.396-11.057,3.396ZM117.07,877.711c1.083,2.732,2.8,9.164,1.663,20.857-.782,8.034,2.915,12.252,9.135,16.452,2.839,1.918,6.136,2.932,9.536,2.932s6.697-1.014,9.537-2.932c6.219-4.2,9.917-8.418,9.135-16.453-1.137-11.693.581-18.124,1.663-20.856-1.53-.439-4.32-1.223-8.815-2.429-6.768-1.816-10.513-2.666-11.52-2.887-1.006.222-4.751,1.072-11.519,2.887-4.494,1.206-7.285,1.99-8.815,2.429Z" fill="#fff"/>
      <g>
        <polygon points="132.546 890.799 131.561 892.693 134.99 896.767 137.074 894.304 134.156 890.988 132.546 890.799" fill="#68ed00"/>
        <polygon points="137.654 893.053 138.543 893.053 139.749 893.053 142.039 893.053 147.228 881.173 143.732 881.173 139.146 891.673 134.194 880.336 130.698 880.336 134.719 889.314 137.654 893.053" fill="#68ed00"/>
        <polygon points="135.729 897.513 141.717 897.513 140.542 899.673 137.965 900.525 135.35 906.646 133.057 906.646 133.569 902.553 130.541 898.394 130.541 897.181 133.361 900.412 135.224 898.801 131.201 893.95 129.495 894.083 128.358 896.489 131.39 908.446 136.525 908.446 142.721 902.913 145.412 894.367 138.287 894.367 135.729 897.513" fill="#68ed00"/>
      </g>
    </g>
  </g>
  <g id="short_costura_frente">
    <path d="M306.476,678.215c-.276,0-.5.224-.5.5v126.127c0,.276.224.5.5.5s.5-.224.5-.5v-126.127c0-.276-.224-.5-.5-.5Z" fill="#4b4b4b"/>
    <path d="M309.584,678.215c-.276,0-.5.224-.5.5v126.127c0,.276.224.5.5.5s.5-.224.5-.5v-126.127c0-.276-.224-.5-.5-.5Z" fill="#4b4b4b"/>
    <path d="M277.867,950.999c-63.595,15.146-114.463,9.142-145.938,1.436-34.105-8.35-53.419-20.438-53.611-20.559-.232-.147-.542-.08-.69.154-.148.233-.079.542.155.689.192.122,19.612,12.283,53.86,20.675,17.322,4.244,40.49,7.976,68.41,7.976,22.998,0,49.223-2.533,78.045-9.398.269-.063.435-.334.371-.603s-.337-.434-.602-.37Z" fill="#4b4b4b"/>
    <path d="M277.867,955.657c-63.595,15.146-114.463,9.141-145.938,1.436-34.105-8.35-53.419-20.438-53.611-20.559-.232-.148-.542-.079-.69.154-.148.233-.079.542.155.689.192.122,19.612,12.283,53.86,20.675,17.322,4.244,40.49,7.976,68.41,7.976,22.998,0,49.223-2.533,78.045-9.398.269-.063.435-.334.371-.603s-.337-.436-.602-.37Z" fill="#4b4b4b"/>
    <path d="M537.702,931.876c-.191.12-19.473,12.194-53.563,20.547-31.483,7.714-82.368,13.729-145.985-1.424-.273-.07-.539.102-.603.37-.064.269.102.539.37.603,28.826,6.866,55.045,9.398,78.046,9.398,27.916,0,51.09-3.731,68.41-7.976,34.248-8.392,53.668-20.553,53.86-20.675.233-.147.303-.456.154-.689-.147-.234-.459-.302-.689-.154Z" fill="#4b4b4b"/>
    <path d="M537.702,936.534c-.191.12-19.473,12.194-53.563,20.547-31.483,7.715-82.368,13.729-145.985-1.424-.273-.069-.539.102-.603.37-.064.269.102.539.37.603,28.826,6.866,55.045,9.398,78.046,9.398,27.916,0,51.09-3.731,68.41-7.976,34.248-8.392,53.668-20.553,53.86-20.675.233-.147.303-.456.154-.689-.147-.234-.459-.303-.689-.154Z" fill="#4b4b4b"/>
  </g>
  <g id="camisa_mangas_frente">
    <path d="M586.553,189.085c-.424-31.598-1.8-48.834-22.128-83.66-17.544-30.057-90.723-51.319-90.723-51.319l-77.617-36.085h-176.17l-77.617,36.085s-73.179,21.263-90.723,51.319c-20.328,34.826-21.704,52.061-22.128,83.66-.453,33.747-20.085,93.617-21.787,100.425,0,0,42.553,31.319,105.872,26.213l22.809-88.511h343.319l22.809,88.511c63.319,5.106,105.872-26.213,105.872-26.213-1.702-6.808-21.334-66.678-21.787-100.425Z" stroke="#4b4b4b" stroke-linecap="round" stroke-linejoin="round" stroke-width="2"/>
  </g>
  <g id="camisa_mangas_estampa_frente">
    <g clip-path="url(#clippath-1)">
      <g>
        <path d="M593.657,189.815c-.435-32.404-1.846-50.079-22.692-85.793-17.992-30.823-93.037-52.628-93.037-52.628l-79.597-37.005h-5.331v28.216l71.722,35.27s69.214,21.272,85.807,51.341c19.226,34.84,20.527,52.083,20.928,83.695.361,28.458,13.611,75.484,18.728,93.635,16.468-6.87,25.814-13.744,25.814-13.744-1.746-6.982-21.878-68.379-22.343-102.987Z" fill="#68ed00"/>
        <path d="M223,14.388h-5.331l-79.597,37.005s-75.046,21.805-93.037,52.628c-20.846,35.714-22.257,53.389-22.692,85.793-.465,34.608-20.597,96.004-22.343,102.987,0,0,9.346,6.874,25.814,13.744,5.118-18.151,18.367-65.176,18.728-93.635.401-31.612,1.702-48.855,20.928-83.695,16.593-30.069,85.807-51.341,85.807-51.341l71.722-35.27V14.388Z" fill="#68ed00"/>
      </g>
    </g>
  </g>
  <g id="camisa_frente">
    <path d="M479.234,273.17c1.532-12.255,29.106-98.043,7.66-139.404-21.447-41.362-100.278-78.864-100.278-78.864l-78.616,31.289-78.616-31.289s-78.831,37.502-100.278,78.864c-21.447,41.362,6.128,127.149,7.66,139.404,1.532,12.255,33.362,178.298-15.793,373.532,0,0,62.091,27.574,187.027,22.468,124.936,5.106,187.027-22.468,187.027-22.468-49.155-195.234-17.325-361.277-15.793-373.532Z" stroke="#4b4b4b" stroke-linecap="round" stroke-linejoin="round" stroke-width="2"/>
  </g>
  <g id="camisa_estampa_frente">
    <rect x="284.623" y="111.155" width="46.753" height="471.429" fill="#4b4b4b"/>
    <g clip-path="url(#clippath-2)">
      <g>
        <rect x="188.964" y="48.268" width="46.753" height="642.107" fill="#68ed00"/>
        <rect x="284.623" y="48.268" width="46.753" height="642.107" fill="#68ed00"/>
        <rect x="380.283" y="48.268" width="46.753" height="642.107" fill="#68ed00"/>
      </g>
    </g>
  </g>
  <g id="camisa_escudo_frente">
    <g>
      <path d="M410.245,162.351s4.138.868,13.119,3.277c8.483,2.276,11.457,3.186,11.457,3.186,0,0-4.145,6.416-2.449,23.85.941,9.676-3.777,14.862-10.748,19.57-3.451,2.331-7.415,3.497-11.378,3.497s-7.927-1.166-11.378-3.497c-6.971-4.708-11.69-9.893-10.748-19.57,1.696-17.434-2.449-23.85-2.449-23.85,0,0,2.974-.91,11.457-3.186,8.981-2.409,13.118-3.277,13.118-3.277Z"/>
      <path d="M410.245,217.231c-4.357,0-8.582-1.298-12.218-3.753-6.55-4.424-12.465-10.025-11.401-20.958,1.627-16.721-2.178-22.831-2.216-22.891-.255-.395-.311-.887-.149-1.329.161-.441.521-.782.97-.919.123-.038,3.096-.944,11.508-3.201,8.918-2.393,13.028-3.26,13.199-3.296.203-.042.412-.042.615,0,.171.036,4.282.904,13.2,3.296,8.412,2.257,11.385,3.163,11.508,3.201.449.137.809.478.97.919.161.442.105.934-.149,1.329-.031.051-3.824,6.364-2.216,22.891,1.063,10.933-4.852,16.534-11.401,20.958-3.637,2.456-7.862,3.753-12.219,3.753ZM387.774,169.761c1.196,3.019,3.095,10.127,1.838,23.049-.864,8.879,3.222,13.54,10.095,18.181,3.138,2.12,6.781,3.24,10.538,3.24s7.4-1.12,10.539-3.24c6.873-4.642,10.959-9.302,10.095-18.182-1.257-12.921.642-20.029,1.838-23.048-1.69-.485-4.774-1.352-9.741-2.684-7.479-2.006-11.618-2.946-12.73-3.191-1.111.245-5.25,1.185-12.729,3.191-4.967,1.333-8.051,2.199-9.741,2.684Z" fill="#fff"/>
      <g>
        <polygon points="404.876 184.225 403.788 186.319 407.578 190.821 409.881 188.098 406.656 184.434 404.876 184.225" fill="#68ed00"/>
        <polygon points="410.521 186.716 411.504 186.716 412.837 186.716 415.367 186.716 421.102 173.588 417.238 173.588 412.17 185.19 406.698 172.662 402.835 172.662 407.278 182.584 410.521 186.716" fill="#68ed00"/>
        <polygon points="408.394 191.644 415.011 191.644 413.713 194.031 410.865 194.974 407.976 201.737 405.442 201.737 406.007 197.214 402.66 192.618 402.66 191.278 405.777 194.848 407.836 193.068 403.39 187.708 401.505 187.854 400.249 190.513 403.599 203.726 409.274 203.726 416.121 197.612 419.094 188.168 411.221 188.168 408.394 191.644" fill="#68ed00"/>
      </g>
    </g>
  </g>
  <g id="camisa_numero_contorno_frente">
    <path d="M320.891,254.087l-5.449,4.805h-14.648l-5.449-4.805v-7.412h8.291v3.721h8.76v-10.254h-11.865l-5.42-4.805v-17.637l5.42-4.834h14.854l5.508,4.863v36.357ZM312.394,231.616v-10.254h-8.76v10.254h8.76Z" stroke="#000" stroke-linecap="round" stroke-linejoin="round" stroke-width="10"/>
  </g>
  <g id="camisa_numero_frente">
    <path d="M320.891,254.087l-5.449,4.805h-14.648l-5.449-4.805v-7.412h8.291v3.721h8.76v-10.254h-11.865l-5.42-4.805v-17.637l5.42-4.834h14.854l5.508,4.863v36.357ZM312.394,231.616v-10.254h-8.76v10.254h8.76Z" fill="#fff"/>
  </g>
  <g id="camisa_patrocinador_frente">
    <path d="M415.452,350.567c-1.026-1.165-2.504-1.833-4.057-1.833h-5.719c-1.544,0-3.014.66-4.04,1.814l-6.51,7.321-4.378-6.689c-.999-1.526-2.7-2.445-4.523-2.445h-5.871c-1.629,0-3.102.728-4.099,1.889-.015-.018-.028-.038-.044-.056-1.026-1.166-2.505-1.833-4.057-1.833h-5.472c-2.714,0-5.006,2.011-5.36,4.702l-1.532,11.649h-5.898l1.33-10.249c.2-1.542-.274-3.096-1.3-4.264s-2.506-1.838-4.061-1.838h-5.46c-2.325,0-4.336,1.479-5.088,3.593-2.008-2.201-4.888-3.593-8.095-3.593h-22.448c-.082,0-.162.009-.243.012.777-.222,1.5-.617,2.112-1.164l11.671-10.422c.726-.648,1.264-1.481,1.556-2.409l5.068-16.097c.517-1.642.221-3.433-.797-4.821-.859-1.171-2.147-1.931-3.561-2.142l7.578-17.349c.73-1.671.568-3.598-.431-5.124s-2.7-2.446-4.523-2.446h-6.585c-2.149,0-4.094,1.273-4.954,3.242l-3.684,8.435-4.373-10.012c-.86-1.97-2.805-3.242-4.954-3.242h-6.585c-1.833,0-3.54.928-4.537,2.467-.996,1.538-1.146,3.476-.397,5.149l5.737,12.813c-.882.504-1.629,1.249-2.119,2.192l-1.739,3.345c-1.779.263-3.324,1.386-4.099,3.027l-2.141,4.533c-.536,1.135-.661,2.421-.352,3.638l5.711,22.522c.483,1.903,1.947,3.337,3.764,3.855h-21.778c-1.02,0-1.97.287-2.783.778-.822-.492-1.77-.778-2.769-.778h-6.925c-1.437,0-2.814.572-3.828,1.589l-3.751,3.762-2.703-3.344c-1.027-1.27-2.572-2.007-4.204-2.007h-6.924c-.749,0-1.472.16-2.135.445-.667-.289-1.396-.445-2.148-.445h-5.904c-1.77,0-3.428.867-4.439,2.32l-6.145,8.837-4.116-8.181c-.918-1.825-2.786-2.977-4.829-2.977h-5.904c-1.876,0-3.618.972-4.602,2.57-.984,1.597-1.07,3.59-.227,5.266l10.655,21.18c.918,1.825,2.838,2.977,4.881,2.977h5.904c1.77,0,3.428-.867,4.439-2.32l12.593-18.113,6.44,7.964-.813,6.379c-.197,1.541.279,3.091,1.305,4.257s2.504,1.834,4.057,1.834h5.464c2.722,0,5.019-2.023,5.363-4.724l.831-6.519,8.451-8.476c-.118.343-.212.698-.259,1.07l-1.601,12.559c-.196,1.541.279,3.091,1.306,4.256,1.026,1.166,2.504,1.833,4.057,1.833h22.02c3.008,0,5.744-1.138,7.813-2.987.206.411.459.802.769,1.154,1.026,1.166,2.504,1.833,4.057,1.833h5.464c2.721,0,5.018-2.022,5.363-4.722l.27-2.12,4.707,5.101c1.024,1.109,2.464,1.74,3.974,1.74h7.142c2.147,0,4.091-1.271,4.952-3.237.113-.258.202-.522.272-.788.068.082.127.17.197.25,2.113,2.399,5.158,3.776,8.355,3.776h14.262c3.883,0,7.419-1.691,9.877-4.4.178.943.605,1.832,1.253,2.567,1.026,1.165,2.505,1.833,4.057,1.833h5.465c2.451,0,4.559-1.641,5.204-3.94l1.002,1.454c.953,1.383,2.495,2.244,4.171,2.331,1.667.083,3.299-.61,4.39-1.887l.625-.732c.185.333.408.649.664.94,1.026,1.166,2.505,1.833,4.057,1.833h5.464c2.721,0,5.018-2.023,5.363-4.722l2.7-21.181c.196-1.541-.279-3.091-1.306-4.256ZM303.914,351.777c-1.459-1.396-3.297-2.4-5.348-2.82h8.473c.083,0,.166-.008.249-.011-1.486.424-2.707,1.466-3.373,2.832Z" fill="#fff"/>
    <g>
      <g>
        <path d="M296.365,354.14h-22.254v1.871s1.03,1.3,1.03,1.3l1.346,1.698h17.895c1.038,0,1.878.84,1.878,1.878,0,.627-.308,1.183-.781,1.524-.308.224-.686.354-1.097.354h-12.78l1.975,2.773,1.012,1.418h9.372c1.023,0,1.852.805,1.852,1.797v.053c0,.992-.829,1.794-1.852,1.794h-15.045l.644-5.062.081-.633.273-2.133v-.007h-5.464l-.04.308-1.561,12.248h22.02c3.446,0,6.238-2.709,6.238-6.054v-.449c0-1.621-.657-3.092-1.726-4.178h.002c.062-.04.123-.081.183-.123,1.409-1.003,2.329-2.648,2.329-4.508v-.341c0-3.054-2.476-5.528-5.528-5.528Z"/>
        <polygon points="256.78 359.009 253.636 362.162 251.283 359.255 247.148 354.14 240.224 354.14 249.812 365.997 250.342 366.65 249.5 373.255 249.236 375.32 254.7 375.32 255.061 372.488 255.764 366.971 256.736 365.997 268.559 354.14 261.634 354.14 256.78 359.009"/>
        <polygon points="218.707 370.436 210.508 354.14 204.604 354.14 215.259 375.32 215.311 375.32 221.164 375.32 221.215 375.32 235.941 354.14 230.037 354.14 218.707 370.436"/>
        <polygon points="308.882 364.539 307.507 375.32 312.972 375.32 313.748 369.238 314.346 364.539 311.147 364.539 308.882 364.539"/>
        <path d="M331.218,354.14h-22.448v1.871s1.03,1.3,1.03,1.3l1.346,1.698h17.759c1.297,0,2.348,1.051,2.348,2.346,0,1.759-1.427,3.184-3.184,3.184h-10.733l4.336,4.699,5.612,6.082h7.142l-5.612-6.082h.42c4.169,0,7.547-3.38,7.547-7.549v-1.983c0-3.074-2.491-5.565-5.563-5.565Z"/>
        <path d="M365.072,366.385c-.306,2.347-2.347,4.106-4.765,4.106h-8.633c-2.088,0-3.702-1.794-3.438-3.821l1.626-12.53h-5.46l-1.878,14.729c-.436,3.422,2.23,6.45,5.68,6.45h14.262c3.995,0,7.367-2.969,7.872-6.932l1.816-14.248h-5.472l-1.61,12.244Z"/>
        <polygon points="405.931 354.14 405.676 354.14 394.472 366.74 386.225 354.14 385.818 354.14 380.353 354.14 380.254 354.919 380.254 354.921 377.653 375.32 383.117 375.32 384.866 361.61 390.868 370.955 393.775 375.173 397.379 370.955 404.834 362.745 403.231 375.32 408.695 375.32 411.257 355.229 411.396 354.14 405.931 354.14"/>
      </g>
      <g>
        <polygon points="317.425 314.556 310.84 314.556 320.614 292.178 327.2 292.178 317.425 314.556" fill="#68ed00"/>
        <polygon points="302.577 310.666 308.073 316.912 304.147 321.552 297.687 313.878 299.543 310.309 302.577 310.666" fill="#68ed00"/>
        <polygon points="309.165 314.556 313.112 314.556 302.648 290.601 296.063 290.601 303.636 307.513 309.165 314.556" fill="#68ed00"/>
        <polygon points="297.009 316.246 304.587 325.383 301.078 328.417 295.765 322.331 295.765 324.615 301.47 332.45 300.507 340.159 304.825 340.159 309.751 328.631 314.605 327.025 316.818 322.956 305.539 322.956 310.358 317.031 323.778 317.031 318.71 333.128 307.038 343.55 297.366 343.55 291.655 321.028 293.796 316.495 297.009 316.246" fill="#68ed00"/>
      </g>
    </g>
  </g>
  <g id="camisa_logo_vybrum_frente">
    <g>
      <path d="M252.212,184.278c-.348-.396-.85-.622-1.378-.622h-1.917c-.524,0-1.024.224-1.372.616l-2.162,2.431-1.451-2.217c-.34-.52-.915-.83-1.536-.83h-1.968c-.541,0-1.034.239-1.372.621-.348-.394-.85-.621-1.376-.621h-1.834c-.918,0-1.7.686-1.82,1.596l-.511,3.885h-1.929l.442-3.409c.068-.524-.093-1.051-.441-1.448s-.851-.624-1.379-.624h-1.83c-.77,0-1.444.482-1.712,1.173-.683-.733-1.652-1.173-2.707-1.173h-7.525c-.712,0-1.33.407-1.634,1-.672-.631-1.569-1-2.524-1h-7.46c-.334,0-.653.088-.932.254-.28-.164-.601-.254-.93-.254h-2.321c-.491,0-.953.192-1.3.54l-1.239,1.242-.89-1.1c-.35-.433-.871-.682-1.428-.682h-2.321c-.248,0-.492.05-.718.146-.226-.096-.469-.146-.718-.146h-1.979c-.601,0-1.164.295-1.507.788l-2.037,2.93-1.362-2.707c-.314-.623-.942-1.011-1.64-1.011h-1.979c-.642,0-1.226.326-1.563.873s-.366,1.215-.077,1.788l3.572,7.1c.314.623.942,1.011,1.64,1.011h1.996c.601,0,1.164-.295,1.507-.788l4.203-6.046,2.133,2.637-.272,2.128c-.067.523.095,1.05.443,1.446.348.396.851.623,1.378.623h1.832c.922,0,1.705-.69,1.821-1.604l.278-2.177,2.754-2.762c-.024.086-.042.175-.054.265l-.537,4.211c-.067.523.095,1.05.443,1.445.348.396.851.622,1.378.622h7.381c.984,0,1.907-.357,2.613-.979.067.127.149.247.246.357.348.396.851.623,1.378.623h1.832c.921,0,1.704-.689,1.821-1.603l.084-.66,1.543,1.673c.346.376.838.591,1.349.591h2.394c.729,0,1.389-.432,1.682-1.099.031-.072.058-.145.08-.219.013.015.026.03.039.045.713.809,1.74,1.273,2.818,1.273h4.781c1.291,0,2.471-.553,3.298-1.446.066.302.207.586.415.823.348.396.851.623,1.378.623h1.832c.813,0,1.518-.536,1.753-1.29l.308.447c.321.466.851.762,1.416.791.566.03,1.123-.21,1.491-.641l.188-.22c.06.102.129.199.209.29.348.396.851.623,1.378.623h1.832c.922,0,1.704-.689,1.821-1.604l.905-7.1c.067-.523-.095-1.05-.443-1.445Z"/>
      <g>
        <path d="M212.276,185.491h-7.46v.627s.345.436.345.436l.451.569h5.999c.348,0,.629.282.629.629,0,.21-.103.397-.262.511-.103.075-.23.119-.368.119h-4.284l.662.929.339.475h3.142c.343,0,.621.27.621.602v.018c0,.332-.278.601-.621.601h-5.043l.216-1.697.027-.212.091-.715v-.002h-1.832l-.013.103-.523,4.106h7.381c1.155,0,2.091-.908,2.091-2.029v-.15c0-.543-.22-1.036-.579-1.4h0c.021-.013.041-.027.061-.041.472-.336.781-.887.781-1.511v-.114c0-1.024-.83-1.853-1.853-1.853Z" fill="#fff"/>
        <polygon points="199.006 187.123 197.952 188.18 197.164 187.206 195.777 185.491 193.456 185.491 196.67 189.465 196.848 189.684 196.566 191.899 196.477 192.591 198.309 192.591 198.43 191.641 198.666 189.792 198.992 189.465 202.955 185.491 200.633 185.491 199.006 187.123" fill="#fff"/>
        <polygon points="186.244 190.954 183.496 185.491 181.516 185.491 185.088 192.591 185.105 192.591 187.067 192.591 187.085 192.591 192.021 185.491 190.042 185.491 186.244 190.954" fill="#fff"/>
        <polygon points="216.471 188.977 216.01 192.591 217.842 192.591 218.102 190.552 218.303 188.977 217.23 188.977 216.471 188.977" fill="#fff"/>
        <path d="M223.959,185.491h-7.525v.627s.345.436.345.436l.451.569h5.953c.435,0,.787.352.787.786,0,.59-.478,1.067-1.067,1.067h-3.598l1.454,1.575,1.881,2.039h2.394l-1.881-2.039h.141c1.398,0,2.53-1.133,2.53-2.53v-.665c0-1.03-.835-1.866-1.865-1.866Z" fill="#fff"/>
        <path d="M235.306,189.596c-.102.787-.787,1.376-1.597,1.376h-2.894c-.7,0-1.241-.601-1.152-1.281l.545-4.2h-1.83l-.629,4.937c-.146,1.147.748,2.162,1.904,2.162h4.781c1.339,0,2.469-.995,2.639-2.324l.609-4.776h-1.834l-.54,4.104Z" fill="#fff"/>
        <polygon points="249.003 185.491 248.917 185.491 245.162 189.715 242.397 185.491 242.261 185.491 240.429 185.491 240.396 185.752 240.396 185.753 239.524 192.591 241.355 192.591 241.941 187.995 243.954 191.128 244.928 192.541 246.136 191.128 248.635 188.375 248.098 192.591 249.929 192.591 250.788 185.856 250.835 185.491 249.003 185.491" fill="#fff"/>
      </g>
    </g>
  </g>
  <g id="camisa_gola_frente">
    <g>
      <path d="M387.319,1s-60.255,9.617-79.319,8.596c-19.064,1.021-79.319-8.596-79.319-8.596-3.404,8.085-2.043,22.213-2.043,22.213,20.085,11.915,81.362,10.553,81.362,10.553,0,0,61.277,1.362,81.362-10.553,0,0,1.362-14.128-2.043-22.213Z" fill="#68ed00" stroke="#4b4b4b" stroke-linecap="round" stroke-linejoin="round" stroke-width="2"/>
      <path d="M228.681,1s-7.489,52.766,79.319,75.574v19.404s-84.851-16.681-95.66-74.436c0,0,8.17-16.117,16.34-20.543Z" fill="#68ed00" stroke="#4b4b4b" stroke-linecap="round" stroke-linejoin="round" stroke-width="2"/>
      <path d="M387.319,1s7.489,52.766-79.319,75.574v19.404s84.851-16.681,95.66-74.436c0,0-8.17-16.117-16.34-20.543Z" fill="#68ed00" stroke="#4b4b4b" stroke-linecap="round" stroke-linejoin="round" stroke-width="2"/>
    </g>
  </g>
  <g id="camisa_costura_frente">
    <path d="M107.108,315.973c-.072.267.085.541.352.613.044.012.088.018.131.018.22,0,.422-.146.482-.369l3.127-11.534c1.604-.001,3.235-.017,4.877-.052.276-.006.495-.234.489-.511-.006-.272-.229-.489-.5-.489h-.011c-1.55.033-3.064.033-4.58.036l.986-3.638c.112,0,.219.004.332.004,1.65,0,3.332-.018,5.023-.053.276-.006.495-.234.489-.511-.006-.276-.193-.474-.511-.489-1.713.037-3.389.041-5.06.041l16.546-61.039c.072-.267-.085-.541-.352-.613-.268-.075-.542.084-.613.352l-16.619,61.309c-64.665-.283-98.056-27.464-98.395-27.747-.213-.176-.527-.147-.705.064-.177.212-.148.527.064.704.342.285,33.879,27.581,98.769,27.965l-.992,3.66c-64.993-.165-98.535-27.459-98.876-27.742-.213-.176-.527-.147-.705.064-.177.212-.148.527.064.704.343.285,34.04,27.721,99.246,27.971l-3.058,11.283Z" fill="#4b4b4b"/>
    <path d="M605.143,276.016c-.178-.213-.493-.241-.704-.064-.341.284-33.887,27.562-98.876,27.741l-.992-3.659c64.882-.383,98.427-27.68,98.769-27.965.212-.177.24-.492.063-.704-.178-.213-.493-.24-.704-.064-.34.283-33.726,27.444-98.396,27.746l-16.619-61.308c-.072-.266-.342-.427-.613-.352-.267.072-.424.347-.352.613l16.546,61.038c-1.671,0-3.347-.003-5.06-.04h-.011c-.271,0-.494.217-.5.489-.006.276.213.505.489.511,1.695.036,3.368.053,5.023.053.112,0,.219-.004.331-.004l.986,3.637c-1.516-.003-3.029-.003-4.579-.035h-.011c-.271,0-.494.217-.5.489-.006.276.213.505.489.511,1.646.035,3.268.051,4.876.052l3.127,11.534c.061.223.262.369.482.369.043,0,.087-.005.131-.018.267-.072.424-.347.352-.613l-3.058-11.283c65.197-.25,98.903-27.685,99.246-27.971.212-.177.24-.492.063-.704Z" fill="#4b4b4b"/>
    <path d="M124.88,628.687c-.07.267.09.54.357.609.448.117,45.537,11.755,112.841,17.53,21.417,1.837,46.648,3.194,74.485,3.194,52.899,0,115.181-4.903,178.378-20.723.269-.067.431-.339.364-.606-.068-.269-.342-.431-.606-.364-96.311,24.109-190.476,22.828-252.513,17.504-67.226-5.767-112.25-17.386-112.696-17.502-.267-.074-.541.089-.61.357Z" fill="#4b4b4b"/>
    <path d="M491.306,634.436c-.068-.269-.342-.431-.606-.364-96.311,24.109-190.476,22.828-252.513,17.504-67.226-5.767-112.25-17.386-112.696-17.502-.267-.072-.541.089-.61.357-.07.267.09.54.357.609.448.117,45.537,11.755,112.841,17.53,21.417,1.837,46.648,3.194,74.485,3.194,52.899,0,115.181-4.903,178.378-20.723.269-.067.431-.339.364-.606Z" fill="#4b4b4b"/>
  </g>
</svg>