<?xml version="1.0" encoding="UTF-8"?>
<svg xmlns="http://www.w3.org/2000/svg" xmlns:xlink="http://www.w3.org/1999/xlink" viewBox="0 0 616 979.763">
  <defs>
    <clipPath id="clippath">
      <path d="M527.659,825.377c-8.681-91.915-33.638-182.675-33.638-182.675l-186.022,19.271-186.022-19.271s-24.957,90.76-33.638,182.675c-8.681,91.915-12.255,125.106-12.255,125.106,0,0,76.085,50.042,200.17,16.34,0,0,13.958-142.979,31.745-151.66,17.787,8.681,31.745,151.66,31.745,151.66,124.085,33.702,200.17-16.34,200.17-16.34,0,0-3.574-33.192-12.255-125.106Z" fill="none"/>
    </clipPath>
    <clipPath id="clippath-1">
      <path d="M586.553,189.122c-.424-31.598-1.8-48.834-22.128-83.66-17.544-30.057-90.723-51.319-90.723-51.319l-77.617-36.085h-176.17l-77.617,36.085s-73.179,21.263-90.723,51.319c-20.328,34.826-21.704,52.061-22.128,83.66-.453,33.747-20.085,93.617-21.787,100.425,0,0,42.553,31.319,105.872,26.213l22.809-88.511h343.319l22.809,88.511c63.319,5.106,105.872-26.213,105.872-26.213-1.702-6.808-21.334-66.678-21.787-100.425Z" fill="none"/>
    </clipPath>
    <clipPath id="clippath-2">
      <path d="M479.234,273.243c1.532-12.255,29.106-98.043,7.66-139.404-21.447-41.362-120.278-111.392-120.278-111.392h-117.232s-98.831,70.03-120.278,111.392c-21.447,41.362,6.128,127.149,7.66,139.404,1.532,12.255,33.362,178.298-15.793,373.532,0,0,62.091,27.574,187.027,22.468,124.936,5.106,187.027-22.468,187.027-22.468-49.155-195.234-17.325-361.277-15.793-373.532Z" fill="none"/>
    </clipPath>
  </defs>
  <g id="short_verso">
    <path d="M491.167,635.005l-11.264-44.242H136.097l-11.265,44.242c-29.953,58.48-48.833,316.577-48.833,316.577,88.225,49.689,201.502,16.053,201.502,16.053,15.612-158.623,30.498-157.859,30.498-157.859,0,0,14.886-.764,30.498,157.859,0,0,113.277,33.636,201.502-16.053,0,0-18.879-258.097-48.833-316.577Z" stroke="#4b4b4b" stroke-linecap="round" stroke-linejoin="round" stroke-width="2"/>
    <g>
      <path d="M479.903,590.763s-37.477,23.985-171.903,22.838" fill="none" stroke="#4b4b4b" stroke-linecap="round" stroke-linejoin="round" stroke-width="2"/>
      <path d="M308,651.823s111.189-1.529,183.167-16.818" fill="none" stroke="#4b4b4b" stroke-linecap="round" stroke-linejoin="round" stroke-width="2"/>
      <path d="M136.097,590.763s37.477,23.985,171.903,22.838" fill="none" stroke="#4b4b4b" stroke-linecap="round" stroke-linejoin="round" stroke-width="2"/>
      <path d="M308,651.823s-111.189-1.529-183.167-16.818" fill="none" stroke="#4b4b4b" stroke-linecap="round" stroke-linejoin="round" stroke-width="2"/>
    </g>
  </g>
  <g id="short_estampa_verso">
    <g clip-path="url(#clippath)">
      <g>
        <rect x="473.623" y="628.392" width="46.753" height="181.43" transform="translate(-91.75 72.967) rotate(-7.689)" fill="#68ed00"/>
        <rect x="28.285" y="695.731" width="181.43" height="46.753" transform="translate(-609.564 740.818) rotate(-82.311)" fill="#68ed00"/>
      </g>
    </g>
  </g>
  <g id="short_costura_verso">
    <path d="M306.476,678.251c-.276,0-.5.224-.5.5v126.127c0,.276.224.5.5.5s.5-.224.5-.5v-126.127c0-.276-.224-.5-.5-.5Z" fill="#4b4b4b"/>
    <path d="M309.584,678.251c-.276,0-.5.224-.5.5v126.127c0,.276.224.5.5.5s.5-.224.5-.5v-126.127c0-.276-.224-.5-.5-.5Z" fill="#4b4b4b"/>
    <path d="M277.867,951.035c-63.595,15.146-114.463,9.142-145.938,1.436-34.105-8.35-53.419-20.438-53.611-20.559-.232-.147-.542-.08-.69.154-.148.233-.079.542.155.689.192.122,19.612,12.283,53.86,20.675,17.322,4.244,40.49,7.976,68.41,7.976,22.998,0,49.223-2.533,78.045-9.398.269-.063.435-.334.371-.603s-.337-.434-.602-.37Z" fill="#4b4b4b"/>
    <path d="M277.867,955.693c-63.595,15.146-114.463,9.141-145.938,1.436-34.105-8.35-53.419-20.438-53.611-20.559-.232-.148-.542-.079-.69.154-.148.233-.079.542.155.689.192.122,19.612,12.283,53.86,20.675,17.322,4.244,40.49,7.976,68.41,7.976,22.998,0,49.223-2.533,78.045-9.398.269-.063.435-.334.371-.603s-.337-.436-.602-.37Z" fill="#4b4b4b"/>
    <path d="M537.702,931.912c-.191.12-19.473,12.194-53.563,20.547-31.483,7.714-82.368,13.729-145.985-1.424-.273-.07-.539.102-.603.37-.064.269.102.539.37.603,28.826,6.866,55.045,9.398,78.046,9.398,27.916,0,51.09-3.731,68.41-7.976,34.248-8.392,53.668-20.553,53.86-20.675.233-.147.303-.456.154-.689-.147-.234-.459-.302-.689-.154Z" fill="#4b4b4b"/>
    <path d="M537.702,936.57c-.191.12-19.473,12.194-53.563,20.547-31.483,7.715-82.368,13.729-145.985-1.424-.273-.069-.539.102-.603.37-.064.269.102.539.37.603,28.826,6.866,55.045,9.398,78.046,9.398,27.916,0,51.09-3.731,68.41-7.976,34.248-8.392,53.668-20.553,53.86-20.675.233-.147.303-.456.154-.689-.147-.234-.459-.303-.689-.154Z" fill="#4b4b4b"/>
  </g>
  <g id="camisa_mangas_verso">
    <path d="M586.553,189.158c-.424-31.598-1.8-48.834-22.128-83.66-17.544-30.057-90.723-51.319-90.723-51.319l-77.617-36.085h-176.17l-77.617,36.085s-73.179,21.263-90.723,51.319c-20.328,34.826-21.704,52.061-22.128,83.66-.453,33.747-20.085,93.617-21.787,100.425,0,0,42.553,31.319,105.872,26.213l22.809-88.511h343.319l22.809,88.511c63.319,5.106,105.872-26.213,105.872-26.213-1.702-6.808-21.334-66.678-21.787-100.425Z" stroke="#4b4b4b" stroke-linecap="round" stroke-linejoin="round" stroke-width="2"/>
  </g>
  <g id="camisa_mangas_estampa_verso">
    <g clip-path="url(#clippath-1)">
      <g>
        <path d="M223,14.425h-5.331l-79.597,37.005s-75.046,21.805-93.037,52.628c-20.846,35.714-22.257,53.389-22.692,85.793-.465,34.608-20.597,96.004-22.343,102.987,0,0,9.346,6.874,25.814,13.744,5.118-18.151,18.367-65.176,18.728-93.635.401-31.612,1.702-48.855,20.928-83.695,16.593-30.069,85.807-51.341,85.807-51.341l71.722-35.27v.717h24.128V14.425h-24.128Z" fill="#68ed00"/>
        <path d="M593.657,189.851c-.435-32.404-1.846-50.079-22.692-85.793-17.992-30.823-93.037-52.628-93.037-52.628l-79.597-37.005h-29.459v28.934h24.128v-.717l71.722,35.27s69.214,21.272,85.807,51.341c19.226,34.84,20.527,52.083,20.928,83.695.361,28.458,13.611,75.484,18.728,93.635,16.468-6.87,25.814-13.744,25.814-13.744-1.746-6.982-21.878-68.379-22.343-102.987Z" fill="#68ed00"/>
      </g>
    </g>
  </g>
  <g id="camisa_verso">
    <path d="M479.234,273.243c1.532-12.255,29.106-98.043,7.66-139.404-21.447-41.362-120.278-111.392-120.278-111.392h-117.232s-98.831,70.03-120.278,111.392c-21.447,41.362,6.128,127.149,7.66,139.404,1.532,12.255,33.362,178.298-15.793,373.532,0,0,62.091,27.574,187.027,22.468,124.936,5.106,187.027-22.468,187.027-22.468-49.155-195.234-17.325-361.277-15.793-373.532Z" stroke="#4b4b4b" stroke-linecap="round" stroke-linejoin="round" stroke-width="2"/>
  </g>
  <g id="camisa_estampa_verso">
    <g clip-path="url(#clippath-2)">
      <g>
        <rect x="188.964" y="482.62" width="46.753" height="207.792" fill="#68ed00"/>
        <rect x="284.623" y="482.62" width="46.753" height="207.792" fill="#68ed00"/>
        <rect x="380.283" y="482.62" width="46.753" height="207.792" fill="#68ed00"/>
      </g>
      <g>
        <rect x="188.964" y="22.447" width="46.753" height="82.449" fill="#68ed00"/>
        <rect x="284.623" y="22.447" width="46.753" height="82.449" fill="#68ed00"/>
        <rect x="380.283" y="22.447" width="46.753" height="82.449" fill="#68ed00"/>
      </g>
    </g>
  </g>
  <g id="camisa_numero_contorno_verso">
    <path d="M344.301,365.571c0,25.96-11.88,40.041-36.96,40.041-23.76,0-36.081-14.08-36.081-38.721v-3.96h22.88v5.5c0,11,4.84,15.18,12.54,15.18,8.58,0,13.42-4.18,13.42-18.92v-28.16c-4.18,8.8-11.66,13.64-22.44,13.64-17.82,0-26.84-12.54-26.84-35.2v-28.16c0-24.64,12.98-38.72,36.74-38.72s36.74,14.08,36.74,38.72v78.76ZM320.101,312.991v-27.72c0-11-4.84-14.96-12.54-14.96s-12.54,3.96-12.54,14.96v27.72c0,11,4.84,15.18,12.54,15.18s12.54-4.18,12.54-15.18Z" fill="#68ed00" stroke="#68ed00" stroke-miterlimit="10" stroke-width="20"/>
  </g>
  <g id="camisa_numero_verso">
    <path d="M344.301,365.571c0,25.96-11.88,40.041-36.96,40.041-23.76,0-36.081-14.08-36.081-38.721v-3.96h22.88v5.5c0,11,4.84,15.18,12.54,15.18,8.58,0,13.42-4.18,13.42-18.92v-28.16c-4.18,8.8-11.66,13.64-22.44,13.64-17.82,0-26.84-12.54-26.84-35.2v-28.16c0-24.64,12.98-38.72,36.74-38.72s36.74,14.08,36.74,38.72v78.76ZM320.101,312.991v-27.72c0-11-4.84-14.96-12.54-14.96s-12.54,3.96-12.54,14.96v27.72c0,11,4.84,15.18,12.54,15.18s12.54-4.18,12.54-15.18Z" fill="#fff"/>
  </g>
  <g id="camisa_nome_contorno_verso">
    <g>
      <path d="M215.811,200.986c.84.07,1.82.07,2.66.07,2.45,0,4.411-.91,4.411-4.69v-37.384h7.701v36.824c0,9.801-5.25,12.321-11.061,12.321-1.4,0-2.451,0-3.71-.14v-7Z" fill="#68ed00" stroke="#68ed00" stroke-linecap="round" stroke-linejoin="round" stroke-width="10"/>
      <path d="M235.202,170.743c0-7.841,4.13-12.321,11.691-12.321s11.691,4.48,11.691,12.321v25.482c0,7.841-4.13,12.321-11.691,12.321s-11.691-4.48-11.691-12.321v-25.482ZM242.902,196.716c0,3.5,1.54,4.83,3.99,4.83s3.991-1.33,3.991-4.83v-26.463c0-3.5-1.541-4.831-3.991-4.831s-3.99,1.33-3.99,4.831v26.463Z" fill="#68ed00" stroke="#68ed00" stroke-linecap="round" stroke-linejoin="round" stroke-width="10"/>
      <path d="M275.102,180.684h10.781v15.542c0,7.841-3.92,12.321-11.481,12.321s-11.481-4.48-11.481-12.321v-25.482c0-7.841,3.92-12.321,11.481-12.321s11.481,4.48,11.481,12.321v4.76h-7.281v-5.25c0-3.5-1.541-4.831-3.991-4.831s-3.99,1.33-3.99,4.831v26.463c0,3.5,1.54,4.76,3.99,4.76s3.991-1.26,3.991-4.76v-9.031h-3.5v-7Z" fill="#68ed00" stroke="#68ed00" stroke-linecap="round" stroke-linejoin="round" stroke-width="10"/>
      <path d="M315.704,207.987h-7.771l-1.33-8.891h-9.451l-1.33,8.891h-7.071l7.841-49.005h11.271l7.841,49.005ZM298.132,192.445h7.421l-3.71-24.783-3.71,24.783Z" fill="#68ed00" stroke="#68ed00" stroke-linecap="round" stroke-linejoin="round" stroke-width="10"/>
      <path d="M319.271,158.982h12.181c7.701,0,11.481,4.271,11.481,12.111v24.783c0,7.841-3.78,12.111-11.481,12.111h-12.181v-49.005ZM326.972,165.983v35.004h4.341c2.45,0,3.92-1.26,3.92-4.761v-25.482c0-3.5-1.47-4.761-3.92-4.761h-4.341Z" fill="#68ed00" stroke="#68ed00" stroke-linecap="round" stroke-linejoin="round" stroke-width="10"/>
      <path d="M347.2,170.743c0-7.841,4.131-12.321,11.691-12.321s11.691,4.48,11.691,12.321v25.482c0,7.841-4.131,12.321-11.691,12.321s-11.691-4.48-11.691-12.321v-25.482ZM354.901,196.716c0,3.5,1.54,4.83,3.99,4.83s3.99-1.33,3.99-4.83v-26.463c0-3.5-1.54-4.831-3.99-4.831s-3.99,1.33-3.99,4.831v26.463Z" fill="#68ed00" stroke="#68ed00" stroke-linecap="round" stroke-linejoin="round" stroke-width="10"/>
      <path d="M391.652,207.987c-.42-1.26-.7-2.03-.7-6.021v-7.701c0-4.551-1.54-6.231-5.041-6.231h-2.66v19.952h-7.7v-49.005h11.621c7.98,0,11.411,3.71,11.411,11.271v3.851c0,5.04-1.61,8.331-5.041,9.941,3.851,1.61,5.11,5.32,5.11,10.431v7.561c0,2.38.07,4.13.841,5.951h-7.841ZM383.251,165.983v15.052h3.011c2.87,0,4.62-1.26,4.62-5.181v-4.831c0-3.5-1.19-5.041-3.92-5.041h-3.711Z" fill="#68ed00" stroke="#68ed00" stroke-linecap="round" stroke-linejoin="round" stroke-width="10"/>
    </g>
  </g>
  <g id="camisa_nome_verso">
    <g>
      <path d="M215.811,200.986c.84.07,1.82.07,2.66.07,2.45,0,4.411-.91,4.411-4.69v-37.384h7.701v36.824c0,9.801-5.25,12.321-11.061,12.321-1.4,0-2.451,0-3.71-.14v-7Z" fill="#fff"/>
      <path d="M235.202,170.743c0-7.841,4.13-12.321,11.691-12.321s11.691,4.48,11.691,12.321v25.482c0,7.841-4.13,12.321-11.691,12.321s-11.691-4.48-11.691-12.321v-25.482ZM242.902,196.716c0,3.5,1.54,4.83,3.99,4.83s3.991-1.33,3.991-4.83v-26.463c0-3.5-1.541-4.831-3.991-4.831s-3.99,1.33-3.99,4.831v26.463Z" fill="#fff"/>
      <path d="M275.102,180.684h10.781v15.542c0,7.841-3.92,12.321-11.481,12.321s-11.481-4.48-11.481-12.321v-25.482c0-7.841,3.92-12.321,11.481-12.321s11.481,4.48,11.481,12.321v4.76h-7.281v-5.25c0-3.5-1.541-4.831-3.991-4.831s-3.99,1.33-3.99,4.831v26.463c0,3.5,1.54,4.76,3.99,4.76s3.991-1.26,3.991-4.76v-9.031h-3.5v-7Z" fill="#fff"/>
      <path d="M315.704,207.987h-7.771l-1.33-8.891h-9.451l-1.33,8.891h-7.071l7.841-49.005h11.271l7.841,49.005ZM298.132,192.445h7.421l-3.71-24.783-3.71,24.783Z" fill="#fff"/>
      <path d="M319.271,158.982h12.181c7.701,0,11.481,4.271,11.481,12.111v24.783c0,7.841-3.78,12.111-11.481,12.111h-12.181v-49.005ZM326.972,165.983v35.004h4.341c2.45,0,3.92-1.26,3.92-4.761v-25.482c0-3.5-1.47-4.761-3.92-4.761h-4.341Z" fill="#fff"/>
      <path d="M347.2,170.743c0-7.841,4.131-12.321,11.691-12.321s11.691,4.48,11.691,12.321v25.482c0,7.841-4.131,12.321-11.691,12.321s-11.691-4.48-11.691-12.321v-25.482ZM354.901,196.716c0,3.5,1.54,4.83,3.99,4.83s3.99-1.33,3.99-4.83v-26.463c0-3.5-1.54-4.831-3.99-4.831s-3.99,1.33-3.99,4.831v26.463Z" fill="#fff"/>
      <path d="M391.652,207.987c-.42-1.26-.7-2.03-.7-6.021v-7.701c0-4.551-1.54-6.231-5.041-6.231h-2.66v19.952h-7.7v-49.005h11.621c7.98,0,11.411,3.71,11.411,11.271v3.851c0,5.04-1.61,8.331-5.041,9.941,3.851,1.61,5.11,5.32,5.11,10.431v7.561c0,2.38.07,4.13.841,5.951h-7.841ZM383.251,165.983v15.052h3.011c2.87,0,4.62-1.26,4.62-5.181v-4.831c0-3.5-1.19-5.041-3.92-5.041h-3.711Z" fill="#fff"/>
    </g>
  </g>
  <g id="camisa_patrocinador_verso">
    <g>
      <path d="M413.846,476.151c-.949-1.078-2.315-1.695-3.752-1.695h-5.647c-1.428,0-2.787.61-3.736,1.677l-6.722,7.559-4.565-6.975c-.924-1.411-2.497-2.262-4.184-2.262h-5.797c-1.654,0-3.127.817-4.041,2.08-.095-.132-.195-.261-.304-.385-.949-1.078-2.315-1.695-3.752-1.695h-5.402c-2.51,0-4.63,1.86-4.957,4.348l-1.552,11.796h-6.504l1.362-10.501c.186-1.426-.253-2.863-1.202-3.944s-2.317-1.7-3.756-1.7h-5.392c-2.358,0-4.351,1.65-4.858,3.91-1.925-2.382-4.866-3.91-8.159-3.91h-22.166c-2.15,0-3.967,1.364-4.674,3.268-1.907-2.008-4.594-3.268-7.575-3.268h-21.974c-1.012,0-1.951.306-2.739.823-.799-.525-1.746-.823-2.744-.823h-6.837c-1.329,0-2.603.529-3.541,1.47l-3.97,3.981-2.906-3.594c-.949-1.174-2.378-1.856-3.888-1.856h-6.837c-.747,0-1.466.17-2.118.475-.651-.304-1.367-.475-2.111-.475h-5.83c-1.637,0-3.171.801-4.105,2.146l-6.391,9.193-4.319-8.585c-.849-1.688-2.577-2.753-4.467-2.753h-5.83c-1.735,0-3.346.899-4.256,2.376-.911,1.477-.99,3.321-.21,4.871l10.521,20.913c.849,1.688,2.628,2.753,4.518,2.753h5.83c1.637,0,3.171-.802,4.105-2.146l12.691-18.255,6.733,8.326-.822,6.44c-.182,1.425.257,2.859,1.207,3.938s2.316,1.696,3.753,1.696h5.396c2.518,0,4.642-1.871,4.96-4.369l.835-6.551,9.701-9.729.101.127c-.558.696-.935,1.547-1.055,2.487l-1.582,12.403c-.182,1.425.258,2.858,1.208,3.937s2.316,1.695,3.752,1.695h21.743c3.05,0,5.816-1.212,7.833-3.17.21.534.508,1.035.895,1.475.949,1.078,2.316,1.695,3.752,1.695h5.396c2.517,0,4.642-1.87,4.96-4.367l.359-2.812,5.14,5.57c.946,1.025,2.279,1.609,3.675,1.609h7.052c1.985,0,3.783-1.175,4.58-2.994.203-.463.329-.946.385-1.432.201.28.413.553.643.814,2.021,2.296,4.936,3.612,7.995,3.612h14.083c4.006,0,7.636-1.865,10.006-4.811.043,1.142.47,2.246,1.237,3.116.949,1.077,2.316,1.695,3.753,1.695h5.396c2.517,0,4.642-1.871,4.96-4.367l.004-.033,1.442,2.093c.882,1.278,2.308,2.075,3.858,2.155,1.56.091,3.051-.564,4.06-1.745l.95-1.111c.205.474.485.918.833,1.313.95,1.078,2.316,1.695,3.753,1.695h5.396c2.517,0,4.642-1.871,4.96-4.367l2.667-20.915c.182-1.424-.259-2.858-1.208-3.936ZM337.141,496.297c.011-.01.021-.021.031-.03.004.025.007.051.011.076l-.042-.046Z" fill="#fff"/>
      <g>
        <path d="M296.512,479.455h-21.974v1.848s1.017,1.283,1.017,1.283l1.329,1.676h17.669c1.025,0,1.854.829,1.854,1.854,0,.619-.304,1.168-.771,1.505-.304.221-.677.35-1.083.35h-12.619l1.95,2.738.999,1.4h9.254c1.01,0,1.828.795,1.828,1.774v.052c0,.979-.819,1.772-1.828,1.772h-14.856l.636-4.998.08-.625.269-2.106v-.007h-5.395l-.039.304-1.542,12.094h21.743c3.402,0,6.16-2.675,6.16-5.977v-.443c0-1.6-.649-3.053-1.704-4.125h.002c.061-.039.122-.08.18-.122,1.392-.99,2.299-2.614,2.299-4.451v-.337c0-3.016-2.445-5.458-5.458-5.458Z"/>
        <polygon points="257.426 484.262 254.321 487.376 251.998 484.505 247.914 479.455 241.078 479.455 250.545 491.162 251.068 491.807 250.237 498.33 249.976 500.368 255.372 500.368 255.728 497.572 256.423 492.124 257.382 491.162 269.056 479.455 262.219 479.455 257.426 484.262"/>
        <polygon points="219.831 495.546 211.737 479.455 205.907 479.455 216.427 500.368 216.479 500.368 222.257 500.368 222.309 500.368 236.849 479.455 231.019 479.455 219.831 495.546"/>
        <polygon points="308.871 489.723 307.514 500.368 312.909 500.368 313.676 494.363 314.266 489.723 311.107 489.723 308.871 489.723"/>
        <path d="M330.926,479.455h-22.166v1.848s1.017,1.283,1.017,1.283l1.329,1.676h17.535c1.281,0,2.319,1.038,2.319,2.317,0,1.737-1.409,3.144-3.144,3.144h-10.598l4.282,4.64,5.541,6.006h7.052l-5.541-6.006h.415c4.117,0,7.452-3.337,7.452-7.454v-1.958c0-3.035-2.46-5.495-5.493-5.495Z"/>
        <path d="M364.353,491.545c-.302,2.318-2.317,4.055-4.705,4.055h-8.524c-2.062,0-3.656-1.771-3.395-3.773l1.605-12.372h-5.392l-1.854,14.544c-.431,3.379,2.202,6.369,5.609,6.369h14.083c3.944,0,7.274-2.932,7.773-6.845l1.794-14.068h-5.403l-1.59,12.09Z"/>
        <polygon points="404.698 479.455 404.446 479.455 393.383 491.896 385.239 479.455 384.838 479.455 379.442 479.455 379.344 480.224 379.344 480.226 376.776 500.368 382.171 500.368 383.897 486.831 389.824 496.058 392.695 500.223 396.253 496.058 403.614 487.951 402.032 500.368 407.427 500.368 409.956 480.53 410.093 479.455 404.698 479.455"/>
      </g>
    </g>
  </g>
  <g id="camisa_gola_verso">
    <path d="M391.765,1s-66.934,8.17-83.765,7.66c-16.831.511-83.765-7.66-83.765-7.66-9.447,7.404-18.328,23.607-18.328,23.607,17.106,11.745,102.093,11.117,102.093,11.117,0,0,84.987.628,102.093-11.117,0,0-8.882-16.203-18.328-23.607Z" fill="#68ed00" stroke="#4b4b4b" stroke-linecap="round" stroke-linejoin="round" stroke-width="2"/>
  </g>
  <g id="camisa_costura_verso">
    <path d="M107.108,316.01c-.072.267.085.541.352.613.044.012.088.018.131.018.22,0,.422-.146.482-.369l3.127-11.534c1.604-.001,3.235-.017,4.877-.052.276-.006.495-.234.489-.511-.006-.272-.229-.489-.5-.489h-.011c-1.55.033-3.064.033-4.58.036l.986-3.638c.112,0,.219.004.332.004,1.65,0,3.332-.018,5.023-.053.276-.006.495-.234.489-.511-.006-.276-.193-.474-.511-.489-1.713.037-3.389.041-5.06.041l16.546-61.039c.072-.267-.085-.541-.352-.613-.268-.075-.542.084-.613.352l-16.619,61.309c-64.665-.283-98.056-27.464-98.395-27.747-.213-.176-.527-.147-.705.064-.177.212-.148.527.064.704.342.285,33.879,27.581,98.769,27.965l-.992,3.66c-64.993-.165-98.535-27.459-98.876-27.742-.213-.176-.527-.147-.705.064-.177.212-.148.527.064.704.343.285,34.04,27.721,99.246,27.971l-3.058,11.283Z" fill="#4b4b4b"/>
    <path d="M605.143,276.052c-.178-.213-.493-.241-.704-.064-.341.284-33.887,27.562-98.876,27.741l-.992-3.659c64.882-.383,98.427-27.68,98.769-27.965.212-.177.24-.492.063-.704-.178-.213-.493-.24-.704-.064-.34.283-33.726,27.444-98.396,27.746l-16.619-61.308c-.072-.266-.342-.427-.613-.352-.267.072-.424.347-.352.613l16.546,61.038c-1.671,0-3.347-.003-5.06-.04h-.011c-.271,0-.494.217-.5.489-.006.276.213.505.489.511,1.695.036,3.368.053,5.023.053.112,0,.219-.004.331-.004l.986,3.637c-1.516-.003-3.029-.003-4.579-.035h-.011c-.271,0-.494.217-.5.489-.006.276.213.505.489.511,1.646.035,3.268.051,4.876.052l3.127,11.534c.061.223.262.369.482.369.043,0,.087-.005.131-.018.267-.072.424-.347.352-.613l-3.058-11.283c65.197-.25,98.903-27.685,99.246-27.971.212-.177.24-.492.063-.704Z" fill="#4b4b4b"/>
    <path d="M124.88,628.724c-.07.267.09.54.357.609.448.117,45.537,11.755,112.841,17.53,21.417,1.837,46.648,3.194,74.485,3.194,52.899,0,115.181-4.903,178.378-20.723.269-.067.431-.339.364-.606-.068-.269-.342-.431-.606-.364-96.311,24.109-190.476,22.828-252.513,17.504-67.226-5.767-112.25-17.386-112.696-17.502-.267-.074-.541.089-.61.357Z" fill="#4b4b4b"/>
    <path d="M491.306,634.473c-.068-.269-.342-.431-.606-.364-96.311,24.109-190.476,22.828-252.513,17.504-67.226-5.767-112.25-17.386-112.696-17.502-.267-.072-.541.089-.61.357-.07.267.09.54.357.609.448.117,45.537,11.755,112.841,17.53,21.417,1.837,46.648,3.194,74.485,3.194,52.899,0,115.181-4.903,178.378-20.723.269-.067.431-.339.364-.606Z" fill="#4b4b4b"/>
  </g>
</svg>