<?xml version="1.0" encoding="UTF-8"?>
<svg xmlns="http://www.w3.org/2000/svg" xmlns:xlink="http://www.w3.org/1999/xlink" viewBox="0 0 616 979.453">
  <defs>
    <clipPath id="clippath">
      <path d="M527.659,825.34c-8.681-91.915-33.638-182.675-33.638-182.675l-186.022,19.271-186.022-19.271s-24.957,90.76-33.638,182.675c-8.681,91.915-12.255,125.106-12.255,125.106,0,0,76.085,50.042,200.17,16.34,0,0,13.958-142.979,31.745-151.66,17.787,8.681,31.745,151.66,31.745,151.66,124.085,33.702,200.17-16.34,200.17-16.34,0,0-3.574-33.192-12.255-125.106Z" fill="none"/>
    </clipPath>
    <clipPath id="clippath-1">
      <path d="M586.553,189.085c-.424-31.598-1.8-48.834-22.128-83.66-17.544-30.057-90.723-51.319-90.723-51.319l-77.617-36.085h-176.17l-77.617,36.085s-73.179,21.263-90.723,51.319c-20.328,34.826-21.704,52.061-22.128,83.66-.453,33.747-20.085,93.617-21.787,100.425,0,0,42.553,31.319,105.872,26.213l22.809-88.511h343.319l22.809,88.511c63.319,5.106,105.872-26.213,105.872-26.213-1.702-6.808-21.334-66.678-21.787-100.425Z" fill="none"/>
    </clipPath>
    <clipPath id="clippath-2">
      <path d="M479.234,273.17c1.532-12.255,29.106-98.043,7.66-139.404-21.447-41.362-100.278-78.864-100.278-78.864l-78.616,31.289-78.616-31.289s-78.831,37.502-100.278,78.864c-21.447,41.362,6.128,127.149,7.66,139.404,1.532,12.255,33.362,178.298-15.793,373.532,0,0,62.091,27.574,187.027,22.468,124.936,5.106,187.027-22.468,187.027-22.468-49.155-195.234-17.325-361.277-15.793-373.532Z" fill="none"/>
    </clipPath>
  </defs>
  <g id="short_frente">
    <path d="M527.659,825.34c-8.681-91.915-33.638-182.675-33.638-182.675l-186.022,19.271-186.022-19.271s-24.957,90.76-33.638,182.675c-8.681,91.915-12.255,125.106-12.255,125.106,0,0,76.085,50.042,200.17,16.34,0,0,13.958-142.979,31.745-151.66,17.787,8.681,31.745,151.66,31.745,151.66,124.085,33.702,200.17-16.34,200.17-16.34,0,0-3.574-33.192-12.255-125.106Z" fill="#18ed87" stroke="#4b4b4b" stroke-linecap="round" stroke-linejoin="round" stroke-width="2"/>
  </g>
  <g id="estampa_short_frente">
    <g clip-path="url(#clippath)">
      <g>
        <rect x="473.623" y="628.356" width="46.753" height="181.43" transform="translate(-91.745 72.966) rotate(-7.689)" fill="#4b4b4b"/>
        <rect x="28.285" y="695.694" width="181.43" height="46.753" transform="translate(-609.527 740.786) rotate(-82.311)" fill="#4b4b4b"/>
      </g>
    </g>
  </g>
  <g id="numero_short_frente">
    <g>
      <path d="M475.077,923.078h-9.912v-41.494h-2.837v-9.912l6.118-2.29h6.631v53.696Z" fill="#fff"/>
      <path d="M510.282,917.472l-6.426,5.605h-17.705l-6.289-5.605v-42.451l6.426-5.64h17.568l6.426,5.64v42.451ZM500.37,913.166v-33.872h-10.596v33.872h10.596Z" fill="#fff"/>
    </g>
  </g>
  <g id="escudo_short_frente">
    <path d="M127.901,871.886s4.138.868,13.119,3.277c8.483,2.276,11.457,3.186,11.457,3.186,0,0-4.145,6.416-2.449,23.85.941,9.676-3.777,14.862-10.748,19.57-3.451,2.331-7.415,3.497-11.378,3.497s-7.927-1.166-11.378-3.497c-6.971-4.708-11.69-9.893-10.748-19.57,1.696-17.434-2.449-23.85-2.449-23.85,0,0,2.974-.91,11.457-3.186,8.981-2.409,13.118-3.277,13.118-3.277Z" fill="#fff"/>
  </g>
  <g id="mangas_frente">
    <path d="M586.553,189.085c-.424-31.598-1.8-48.834-22.128-83.66-17.544-30.057-90.723-51.319-90.723-51.319l-77.617-36.085h-176.17l-77.617,36.085s-73.179,21.263-90.723,51.319c-20.328,34.826-21.704,52.061-22.128,83.66-.453,33.747-20.085,93.617-21.787,100.425,0,0,42.553,31.319,105.872,26.213l22.809-88.511h343.319l22.809,88.511c63.319,5.106,105.872-26.213,105.872-26.213-1.702-6.808-21.334-66.678-21.787-100.425Z" fill="#0669f7" stroke="#4b4b4b" stroke-linecap="round" stroke-linejoin="round" stroke-width="2"/>
  </g>
  <g id="estampa_mangas_frente">
    <g clip-path="url(#clippath-1)">
      <g>
        <path d="M593.657,189.815c-.435-32.404-1.846-50.079-22.692-85.793-17.992-30.823-93.037-52.628-93.037-52.628l-79.597-37.005h-5.331v28.216l71.722,35.27s69.214,21.272,85.807,51.341c19.226,34.84,20.527,52.083,20.928,83.695.361,28.458,13.611,75.484,18.728,93.635,16.468-6.87,25.814-13.744,25.814-13.744-1.746-6.982-21.878-68.379-22.343-102.987Z" fill="#4b4b4b"/>
        <path d="M223,14.388h-5.331l-79.597,37.005s-75.046,21.805-93.037,52.628c-20.846,35.714-22.257,53.389-22.692,85.793-.465,34.608-20.597,96.004-22.343,102.987,0,0,9.346,6.874,25.814,13.744,5.118-18.151,18.367-65.176,18.728-93.635.401-31.612,1.702-48.855,20.928-83.695,16.593-30.069,85.807-51.341,85.807-51.341l71.722-35.27V14.388Z" fill="#4b4b4b"/>
      </g>
    </g>
  </g>
  <g id="camisa_frente">
    <path d="M479.234,273.17c1.532-12.255,29.106-98.043,7.66-139.404-21.447-41.362-100.278-78.864-100.278-78.864l-78.616,31.289-78.616-31.289s-78.831,37.502-100.278,78.864c-21.447,41.362,6.128,127.149,7.66,139.404,1.532,12.255,33.362,178.298-15.793,373.532,0,0,62.091,27.574,187.027,22.468,124.936,5.106,187.027-22.468,187.027-22.468-49.155-195.234-17.325-361.277-15.793-373.532Z" fill="#5d08bf" stroke="#4b4b4b" stroke-linecap="round" stroke-linejoin="round" stroke-width="2"/>
  </g>
  <g id="estampa_camisa_frente">
    <rect x="284.623" y="111.155" width="46.753" height="471.429" fill="#4b4b4b"/>
    <g clip-path="url(#clippath-2)">
      <g>
        <rect x="188.964" y="48.268" width="46.753" height="642.107" fill="#4b4b4b"/>
        <rect x="284.623" y="48.268" width="46.753" height="642.107" fill="#4b4b4b"/>
        <rect x="380.283" y="48.268" width="46.753" height="642.107" fill="#4b4b4b"/>
      </g>
    </g>
  </g>
  <g id="escudo_camisa_frente">
    <path d="M403.547,179.86s4.138.868,13.119,3.277c8.483,2.276,11.457,3.186,11.457,3.186,0,0-4.145,6.416-2.449,23.85.941,9.676-3.777,14.862-10.748,19.57-3.451,2.331-7.415,3.497-11.378,3.497s-7.927-1.166-11.378-3.497c-6.971-4.708-11.69-9.893-10.748-19.57,1.696-17.434-2.449-23.85-2.449-23.85,0,0,2.974-.91,11.457-3.186,8.981-2.409,13.118-3.277,13.118-3.277Z" fill="#fff"/>
  </g>
  <g id="numero_camisa_frente">
    <path d="M227.286,225.447l-6.357,5.605h-17.09l-6.357-5.605v-8.647h9.673v4.341h10.22v-11.963h-13.843l-6.323-5.605v-20.576l6.323-5.64h17.329l6.426,5.674v42.417ZM217.374,199.231v-11.963h-10.22v11.963h10.22Z" fill="#fff"/>
  </g>
  <g id="gola_frente">
    <g>
      <path d="M387.319,1s-60.255,9.617-79.319,8.596c-19.064,1.021-79.319-8.596-79.319-8.596-3.404,8.085-2.043,22.213-2.043,22.213,20.085,11.915,81.362,10.553,81.362,10.553,0,0,61.277,1.362,81.362-10.553,0,0,1.362-14.128-2.043-22.213Z" fill="#ffb600" stroke="#4b4b4b" stroke-linecap="round" stroke-linejoin="round" stroke-width="2"/>
      <path d="M228.681,1s-7.489,52.766,79.319,75.574v19.404s-84.851-16.681-95.66-74.436c0,0,8.17-16.117,16.34-20.543Z" fill="#ffb600" stroke="#4b4b4b" stroke-linecap="round" stroke-linejoin="round" stroke-width="2"/>
      <path d="M387.319,1s7.489,52.766-79.319,75.574v19.404s84.851-16.681,95.66-74.436c0,0-8.17-16.117-16.34-20.543Z" fill="#ffb600" stroke="#4b4b4b" stroke-linecap="round" stroke-linejoin="round" stroke-width="2"/>
    </g>
  </g>
  <g id="costuras_frente">
    <g>
      <path d="M306.476,678.215c-.276,0-.5.224-.5.5v126.127c0,.276.224.5.5.5s.5-.224.5-.5v-126.127c0-.276-.224-.5-.5-.5Z" fill="#4b4b4b"/>
      <path d="M309.584,678.215c-.276,0-.5.224-.5.5v126.127c0,.276.224.5.5.5s.5-.224.5-.5v-126.127c0-.276-.224-.5-.5-.5Z" fill="#4b4b4b"/>
      <path d="M107.108,315.973c-.072.267.085.541.352.613.044.012.088.018.131.018.22,0,.422-.146.482-.369l3.127-11.534c1.604-.001,3.235-.017,4.877-.052.276-.006.495-.234.489-.511-.006-.272-.229-.489-.5-.489h-.011c-1.55.033-3.064.033-4.58.036l.986-3.638c.112,0,.219.004.332.004,1.65,0,3.332-.018,5.023-.053.276-.006.495-.234.489-.511-.006-.276-.193-.474-.511-.489-1.713.037-3.389.041-5.06.041l16.546-61.039c.072-.267-.085-.541-.352-.613-.268-.075-.542.084-.613.352l-16.619,61.309c-64.665-.283-98.056-27.464-98.395-27.747-.213-.176-.527-.147-.705.064-.177.212-.148.527.064.704.342.285,33.879,27.581,98.769,27.965l-.992,3.66c-64.993-.165-98.535-27.459-98.876-27.742-.213-.176-.527-.147-.705.064-.177.212-.148.527.064.704.343.285,34.04,27.721,99.246,27.971l-3.058,11.283Z" fill="#4b4b4b"/>
      <path d="M605.143,276.016c-.178-.213-.493-.241-.704-.064-.341.284-33.887,27.562-98.876,27.741l-.992-3.659c64.882-.383,98.427-27.68,98.769-27.965.212-.177.24-.492.063-.704-.178-.213-.493-.24-.704-.064-.34.283-33.726,27.444-98.396,27.746l-16.619-61.308c-.072-.266-.342-.427-.613-.352-.267.072-.424.347-.352.613l16.546,61.038c-1.671,0-3.347-.003-5.06-.04h-.011c-.271,0-.494.217-.5.489-.006.276.213.505.489.511,1.695.036,3.368.053,5.023.053.112,0,.219-.004.331-.004l.986,3.637c-1.516-.003-3.029-.003-4.579-.035h-.011c-.271,0-.494.217-.5.489-.006.276.213.505.489.511,1.646.035,3.268.051,4.876.052l3.127,11.534c.061.223.262.369.482.369.043,0,.087-.005.131-.018.267-.072.424-.347.352-.613l-3.058-11.283c65.197-.25,98.903-27.685,99.246-27.971.212-.177.24-.492.063-.704Z" fill="#4b4b4b"/>
      <path d="M124.88,628.687c-.07.267.09.54.357.609.448.117,45.537,11.755,112.841,17.53,21.417,1.837,46.648,3.194,74.485,3.194,52.899,0,115.181-4.903,178.378-20.723.269-.067.431-.339.364-.606-.068-.269-.342-.431-.606-.364-96.311,24.109-190.476,22.828-252.513,17.504-67.226-5.767-112.25-17.386-112.696-17.502-.267-.074-.541.089-.61.357Z" fill="#4b4b4b"/>
      <path d="M491.306,634.436c-.068-.269-.342-.431-.606-.364-96.311,24.109-190.476,22.828-252.513,17.504-67.226-5.767-112.25-17.386-112.696-17.502-.267-.072-.541.089-.61.357-.07.267.09.54.357.609.448.117,45.537,11.755,112.841,17.53,21.417,1.837,46.648,3.194,74.485,3.194,52.899,0,115.181-4.903,178.378-20.723.269-.067.431-.339.364-.606Z" fill="#4b4b4b"/>
      <path d="M277.867,950.999c-63.595,15.146-114.463,9.142-145.938,1.436-34.105-8.35-53.419-20.438-53.611-20.559-.232-.147-.542-.08-.69.154-.148.233-.079.542.155.689.192.122,19.612,12.283,53.86,20.675,17.322,4.244,40.49,7.976,68.41,7.976,22.998,0,49.223-2.533,78.045-9.398.269-.063.435-.334.371-.603s-.337-.434-.602-.37Z" fill="#4b4b4b"/>
      <path d="M277.867,955.657c-63.595,15.146-114.463,9.141-145.938,1.436-34.105-8.35-53.419-20.438-53.611-20.559-.232-.148-.542-.079-.69.154-.148.233-.079.542.155.689.192.122,19.612,12.283,53.86,20.675,17.322,4.244,40.49,7.976,68.41,7.976,22.998,0,49.223-2.533,78.045-9.398.269-.063.435-.334.371-.603s-.337-.436-.602-.37Z" fill="#4b4b4b"/>
      <path d="M537.702,931.876c-.191.12-19.473,12.194-53.563,20.547-31.483,7.714-82.368,13.729-145.985-1.424-.273-.07-.539.102-.603.37-.064.269.102.539.37.603,28.826,6.866,55.045,9.398,78.046,9.398,27.916,0,51.09-3.731,68.41-7.976,34.248-8.392,53.668-20.553,53.86-20.675.233-.147.303-.456.154-.689-.147-.234-.459-.302-.689-.154Z" fill="#4b4b4b"/>
      <path d="M537.702,936.534c-.191.12-19.473,12.194-53.563,20.547-31.483,7.715-82.368,13.729-145.985-1.424-.273-.069-.539.102-.603.37-.064.269.102.539.37.603,28.826,6.866,55.045,9.398,78.046,9.398,27.916,0,51.09-3.731,68.41-7.976,34.248-8.392,53.668-20.553,53.86-20.675.233-.147.303-.456.154-.689-.147-.234-.459-.303-.689-.154Z" fill="#4b4b4b"/>
    </g>
  </g>
</svg>