<?xml version="1.0" encoding="UTF-8"?>
<svg id="Layer_2" xmlns="http://www.w3.org/2000/svg" version="1.1" viewBox="0 0 781.1 80">
  <!-- Generator: Adobe Illustrator 30.1.0, SVG Export Plug-In . SVG Version: 2.1.1 Build 136)  -->
  <defs>
    <style>
      .st0 {
        fill: #fff;
      }
    </style>
  </defs>
  <g id="logo">
    <g>
      <path class="st0" d="M346.6,0h-84.1v7.1s3.9,4.9,3.9,4.9l5.1,6.4h67.6c3.9,0,7.1,3.2,7.1,7.1s-1.2,4.5-2.9,5.8c-1.2.8-2.6,1.3-4.1,1.3h-48.3l7.5,10.5,3.8,5.4h35.4c3.9,0,7,3,7,6.8v.2c0,3.7-3.1,6.8-7,6.8h-56.8l2.4-19.1.3-2.4,1-8.1h0s-20.6,0-20.6,0v1.2c-.1,0-6,46.3-6,46.3h83.2c13,0,23.6-10.2,23.6-22.9v-1.7c0-6.1-2.5-11.7-6.5-15.8h0c.2-.2.5-.3.7-.5,5.3-3.8,8.8-10,8.8-17v-1.3C367.5,9.3,358.1,0,346.6,0h0Z"/>
      <polygon class="st0" points="197.1 18.4 185.2 30.3 176.3 19.3 160.7 0 134.5 0 170.8 44.8 172.8 47.3 169.6 72.2 168.6 80 189.2 80 190.6 69.3 193.2 48.5 196.9 44.8 241.6 0 215.4 0 197.1 18.4"/>
      <polygon class="st0" points="53.3 61.6 22.3 0 0 0 40.2 80 40.4 80 62.5 80 62.7 80 118.4 0 96.1 0 53.3 61.6"/>
      <polygon class="st0" points="393.9 39.3 388.7 80 409.3 80 412.3 57 414.5 39.3 402.4 39.3 393.9 39.3"/>
      <path class="st0" d="M478.2,0h-84.8v7.1s3.9,4.9,3.9,4.9l5.1,6.4h67.1c4.9,0,8.9,4,8.9,8.9s-5.4,12-12,12h-40.5l16.4,17.7,21.2,23h27l-21.2-23h1.6c15.7,0,28.5-12.8,28.5-28.5v-7.5c0-11.6-9.4-21-21-21h0Z"/>
      <path class="st0" d="M606.1,46.2c-1.2,8.9-8.9,15.5-18,15.5h-32.6c-7.9,0-14-6.8-13-14.4L548.7,0h-20.6l-7.1,55.6c-1.6,12.9,8.4,24.4,21.5,24.4h53.9c15.1,0,27.8-11.2,29.7-26.2L632.9,0h-20.7l-6.1,46.2h0Z"/>
      <polygon class="st0" points="760.4 0 759.5 0 717.2 47.6 686 0 684.5 0 663.8 0 663.5 2.9 663.5 2.9 653.6 80 674.3 80 680.9 28.2 703.5 63.5 714.5 79.4 728.1 63.5 756.3 32.5 750.2 80 770.9 80 780.6 4.1 781.1 0 760.4 0"/>
    </g>
  </g>
</svg>